<svg xmlns="http://www.w3.org/2000/svg" xmlns:xlink="http://www.w3.org/1999/xlink" width="400" height="400" viewBox="0 0 400 400"><defs><linearGradient id="gradient-21"><stop stop-color="#834f3a" offset="0"></stop><stop stop-color="#dba174" offset="0.5"></stop><stop stop-color="#834F3A" offset="1"></stop></linearGradient></defs>
<rect data-name="background" width="100%" height="100%" fill="#2c2e30"></rect><g data-name="watermark" class="watermark-logodesign" stroke="#ffffff" transform="translate(10, 320) scale(1.5) rotate(-45)" style="opacity:0.040000010281801224;"><path fill="#000000" d="M22.92,19.2q3.04,1.68,4.8,4.7t1.76,6.78t-1.76,6.78t-4.8,4.7t-6.68,1.68t-6.7-1.68t-4.84-4.7t-1.78-6.78t1.78-6.78t4.84-4.7t6.7-1.68t6.68,1.68z M11.14,21.74q-2.26,1.3-3.54,3.62t-1.28,5.32t1.28,5.32t3.54,3.6t5.1,1.28t5.08-1.28t3.52-3.6t1.28-5.32t-1.28-5.32t-3.54-3.62t-5.06-1.3q-2.84,0-5.1,1.3z M21.4,24.76l-1.8,2.32q-0.72-0.56-1.4-0.78t-1.48-0.22q-1.44,0-2.3,1.1t-0.86,3.46q0,2.32,0.82,3.44t2.26,1.12q0.96,0,1.74-0.3t1.54-0.9l1.64,2.44q-2.24,2.04-5.2,2.04q-3.2,0-5.08-2.04t-1.88-5.8q0-2.4,0.9-4.16t2.48-2.7t3.54-0.94q2.92,0,5.08,1.92z M41.2,20.32l0,22.96l10.96,0l-0.64,4.72l-16.2,0l0-27.68l5.88,0z M71.92,29.14q2.68,2.98,2.68,8.26q0,3.36-1.22,5.9t-3.52,3.94t-5.42,1.4q-4.76,0-7.46-2.98t-2.7-8.26q0-3.36,1.22-5.9t3.52-3.94t5.46-1.4q4.76,0,7.44,2.98z M61.26,32.1q-1.06,1.7-1.06,5.3t1.06,5.3t3.18,1.7t3.18-1.7t1.06-5.3t-1.04-5.3t-3.16-1.7q-2.16,0-3.22,1.7z M97.88,27.96q-2.08,0.8-6.12,0.8q2,0.88,2.96,2.18t0.96,3.26q0,2.04-1.06,3.66t-3.04,2.54t-4.62,0.92q-1.4,0-2.48-0.28q-0.8,0.52-0.8,1.4q0,0.64,0.5,1.02t1.94,0.38l3.24,0q2.36,0,4.14,0.78t2.76,2.16t0.98,3.14q0,3.24-2.78,5.06t-8.02,1.82q-3.76,0-5.94-0.78t-3.06-2.26t-0.88-3.72l5.08,0q0,1.04,0.4,1.66t1.46,0.92t3.06,0.3q2.76,0,3.86-0.68t1.1-1.92q0-1.12-0.84-1.72t-2.48-0.6l-3.12,0q-3.16,0-4.72-1.18t-1.56-2.98q0-1.12,0.66-2.18t1.82-1.78q-1.96-1.08-2.86-2.54t-0.9-3.5q0-2.32,1.14-4.06t3.2-2.68t4.7-0.94q3.28,0.08,5.4-0.56t4.52-2z M84.14,30.98q-0.94,1.02-0.94,2.78q0,1.8,0.94,2.84t2.58,1.04q1.72,0,2.6-1t0.88-2.96q0-3.72-3.52-3.72q-1.6,0-2.54,1.02z M117.04,29.14q2.68,2.98,2.68,8.26q0,3.36-1.22,5.9t-3.52,3.94t-5.42,1.4q-4.76,0-7.46-2.98t-2.7-8.26q0-3.36,1.22-5.9t3.52-3.94t5.46-1.4q4.76,0,7.44,2.98z M106.38,32.1q-1.06,1.7-1.06,5.3t1.06,5.3t3.18,1.7t3.18-1.7t1.06-5.3t-1.04-5.3t-3.16-1.7q-2.16,0-3.22,1.7z M141.78,23.26q3.9,2.94,3.9,10.78q0,7.68-3.82,10.82t-9.78,3.14l-7.92,0l0-27.68l7.24,0q6.48,0,10.38,2.94z M130.04,24.64l0,19.04l2.4,0q3.4,0,5.26-2.1t1.86-7.54q0-3.76-0.94-5.84t-2.5-2.82t-3.8-0.74l-2.28,0z M167.84,39.12l-13.24,0q0.28,2.88,1.56,4.08t3.48,1.2q1.36,0,2.56-0.44t2.6-1.4l2.36,3.2q-3.56,2.88-8.04,2.88q-5,0-7.68-3t-2.68-8.12q0-3.24,1.14-5.82t3.32-4.06t5.18-1.48q4.52,0,7.04,2.84t2.52,7.92q0,0.4-0.12,2.2z M162.32,35.32q0-5.28-3.8-5.28q-1.76,0-2.74,1.3t-1.18,4.22l7.72,0l0-0.24z M186.8,28.72l-2.16,3.24q-2.68-1.68-5.28-1.68q-1.4,0-2.16,0.52t-0.76,1.4q0,0.64,0.34,1.08t1.28,0.84t2.82,0.96q3.36,0.92,5,2.46t1.64,4.22q0,2.12-1.22,3.68t-3.3,2.38t-4.64,0.82q-2.68,0-4.88-0.82t-3.76-2.26l2.8-3.12q2.68,2.08,5.68,2.08q1.6,0,2.54-0.62t0.94-1.7q0-0.84-0.36-1.32t-1.32-0.9t-3-0.98q-3.2-0.88-4.74-2.5t-1.54-4.02q0-1.8,1.04-3.24t2.94-2.26t4.42-0.82q4.48,0,7.68,2.56z M196.92,26.8l0,21.2l-5.68,0l0-21.2l5.68,0z M196.54,16.82q0.98,0.94,0.98,2.38t-0.98,2.38t-2.5,0.94t-2.48-0.94t-0.96-2.38t0.96-2.38t2.48-0.94t2.5,0.94z M221.48,27.96q-2.08,0.8-6.12,0.8q2,0.88,2.96,2.18t0.96,3.26q0,2.04-1.06,3.66t-3.04,2.54t-4.62,0.92q-1.4,0-2.48-0.28q-0.8,0.52-0.8,1.4q0,0.64,0.5,1.02t1.94,0.38l3.24,0q2.36,0,4.14,0.78t2.76,2.16t0.98,3.14q0,3.24-2.78,5.06t-8.02,1.82q-3.76,0-5.94-0.78t-3.06-2.26t-0.88-3.72l5.08,0q0,1.04,0.4,1.66t1.46,0.92t3.06,0.3q2.76,0,3.86-0.68t1.1-1.92q0-1.12-0.84-1.72t-2.48-0.6l-3.12,0q-3.16,0-4.72-1.18t-1.56-2.98q0-1.12,0.66-2.18t1.82-1.78q-1.96-1.08-2.86-2.54t-0.9-3.5q0-2.32,1.14-4.06t3.2-2.68t4.7-0.94q3.28,0.08,5.4-0.56t4.52-2z M207.74,30.98q-0.94,1.02-0.94,2.78q0,1.8,0.94,2.84t2.58,1.04q1.72,0,2.6-1t0.88-2.96q0-3.72-3.52-3.72q-1.6,0-2.54,1.02z M240.48,27.86q1.56,1.7,1.56,4.7l0,15.44l-5.68,0l0-14.48q0-1.72-0.58-2.42t-1.74-0.7q-1.2,0-2.18,0.74t-1.9,2.22l0,14.64l-5.68,0l0-21.2l4.92,0l0.44,2.68q1.32-1.64,2.9-2.48t3.58-0.84q2.8,0,4.36,1.7z M251.84,42.8q1,1,1,2.4t-1,2.42t-2.44,1.02q-1.4,0-2.4-1.02t-1-2.42t1-2.4t2.4-1q1.44,0,2.44,1z M271.8,48l-1.56-6.2l-8.68,0l-1.56,6.2l-6.12,0l8.52-27.68l7.16,0l8.48,27.68l-6.24,0z M262.68,37.44l6.44,0l-3.24-12.76z M286.48,20.32l0,27.68l-5.88,0l0-27.68l5.88,0z"></path></g><g data-name="container" data="container_num:6" fill="url(#gradient-21)" transform="translate(15.43945165738262, 167.8240794025727) scale(1.2870368238970917)"><path xmlns="http://www.w3.org/2000/svg" d="M24.95 0a25 25 0 1 0 25 25 25 25 0 0 0-25-25zm0 46.91a22 22 0 1 1 22-22 22 22 0 0 1-22 21.99z"></path><path xmlns="http://www.w3.org/2000/svg" d="M24.95 3.65a21.3 21.3 0 1 0 21.3 21.3 21.33 21.33 0 0 0-21.3-21.3z"></path></g><g data-name="icon" fill="#2c2e30" data="id:7287055" transform="translate(25.552719008611838, 177.93650846418382) scale(0.4412702683775702)">
  
 <path d="m25 6.25c-1.1523 0-2.0859 0.92969-2.0859 2.082v83.332c0 1.1523 0.93359 2.0859 2.0859 2.0859h50c1.1484 0 2.082-0.93359 2.082-2.0859v-83.332c0-1.1523-0.93359-2.082-2.082-2.082zm20.832 6.25h8.332c0.55469 0 1.082 0.21875 1.4727 0.60938s0.61328 0.92188 0.61328 1.4727-0.22266 1.082-0.61328 1.4727c-0.39062 0.39062-0.91797 0.60937-1.4727 0.60937h-8.332c-1.1523 0-2.082-0.92969-2.082-2.082 0-1.1523 0.92969-2.082 2.082-2.082zm-12.5 16.668h17.707v-0.003907c0.55469 0 1.082 0.22266 1.4727 0.61328s0.61328 0.91797 0.61328 1.4727c0 0.55078-0.22266 1.082-0.61328 1.4727s-0.91797 0.60938-1.4727 0.60938h-17.707c-1.1484 0-2.082-0.93359-2.082-2.082 0-1.1523 0.93359-2.0859 2.082-2.0859zm0 10.418h33.332v-0.003907c0.55469 0 1.082 0.21875 1.4727 0.60938s0.61328 0.92188 0.61328 1.4727c0 0.55469-0.22266 1.082-0.61328 1.4727s-0.91797 0.61328-1.4727 0.61328h-33.332c-1.1523 0-2.082-0.93359-2.082-2.0859 0-1.1484 0.92969-2.082 2.082-2.082zm0 6.25h33.332v-0.003907c0.55469 0 1.082 0.21875 1.4727 0.60938s0.61328 0.92188 0.61328 1.4727c0 0.55469-0.22266 1.082-0.61328 1.4727s-0.91797 0.61328-1.4727 0.61328h-33.332c-1.1523 0-2.082-0.93359-2.082-2.0859 0-1.1484 0.92969-2.082 2.082-2.082zm0 6.25h33.332v-0.003907c0.55469 0 1.082 0.21875 1.4727 0.60938s0.61328 0.92188 0.61328 1.4727c0 0.55469-0.22266 1.082-0.61328 1.4727s-0.91797 0.61328-1.4727 0.61328h-33.332c-1.1523 0-2.082-0.93359-2.082-2.0859 0-1.1484 0.92969-2.082 2.082-2.082zm0 6.25h33.332v-0.003907c0.55469 0 1.082 0.21875 1.4727 0.60938s0.61328 0.92188 0.61328 1.4727c0 0.55469-0.22266 1.082-0.61328 1.4727s-0.91797 0.61328-1.4727 0.61328h-33.332c-1.1523 0-2.082-0.93359-2.082-2.0859 0-1.1484 0.92969-2.082 2.082-2.082zm0 6.25h18.75v-0.003907c0.55078 0 1.082 0.21875 1.4727 0.60938 0.39062 0.39062 0.60937 0.92188 0.60937 1.4727 0 0.55469-0.21875 1.082-0.60937 1.4727-0.39063 0.39062-0.92188 0.61328-1.4727 0.61328h-18.75c-1.1523 0-2.082-0.93359-2.082-2.0859 0-1.1484 0.92969-2.082 2.082-2.082zm10.418 18.75h12.5v-0.003907c0.55078 0 1.082 0.21875 1.4727 0.60938s0.60938 0.92188 0.60938 1.4727c0 0.55469-0.21875 1.082-0.60938 1.4727s-0.92188 0.61328-1.4727 0.61328h-12.5c-1.1523 0-2.0859-0.93359-2.0859-2.0859 0-1.1484 0.93359-2.082 2.0859-2.082z"></path>

  </g><g data-name="business_name" fill="#ffffff" data="id:273" transform="translate(104.53290514272246, 173.61215770458196) scale(0.8074614598803498)"><path d="M5.64,46.52q1.28,0,1.84-0.4t0.56-1.32l0-25.32l-0.52,0q-1.6,0-2.62,0.48t-1.72,1.74t-1.38,3.62l-1.48-0.36l1.76-8.44l1.36,0q0.16,0.88,0.54,1.18t1.3,0.3l10.24,0q0.92,0,1.32-0.32t0.52-1.16l1.36,0l1.76,8.44l-1.48,0.36q-0.68-2.36-1.38-3.62t-1.7-1.74t-2.64-0.48l-0.76,0l0,25.32q0,0.92,0.56,1.32t1.84,0.4l0,1.48l-9.28,0l0-1.48z M21.76,46.52q1.28,0,1.84-0.4t0.56-1.32l0-15.2q0-0.92-0.56-1.32t-1.84-0.4l0-1.48l9.2,0l0,1.48q-1.28,0-1.84,0.4t-0.56,1.32l0,6.6l6.36,0l0-6.6q0-0.96-0.52-1.34t-1.88-0.38l0-1.48l8.88,0l0,1.48q-1.36,0-1.88,0.38t-0.52,1.34l0,15.2q0,0.96,0.52,1.34t1.88,0.38l0,1.48l-8.88,0l0-1.48q1.36,0,1.88-0.38t0.52-1.34l0-7.04l-6.36,0l0,7.04q0,0.92,0.56,1.32t1.84,0.4l0,1.48l-9.2,0l0-1.48z M43.32,46.52q1.28,0,1.84-0.4t0.56-1.32l0-15.2q0-0.92-0.56-1.32t-1.84-0.4l0-1.48l11.84,0q1.04,0,1.48-0.18t0.48-0.58l1.32,0l1.64,6.48l-1.32,0.36q-0.72-1.92-1.38-2.9t-1.68-1.3t-2.78-0.32l-2.84,0l0,8.6l2.88,0q1.56,0,1.56-2.08l1.28,0l0,6.08l-1.28,0q0-2.44-1.56-2.44l-2.88,0l0,8.32l4.16,0q1.8,0,2.78-0.4t1.44-1.54t0.7-3.34l1.32,0l0,7.68l-1.36,0q-0.16-0.48-0.76-0.66t-2-0.18l-13.04,0l0-1.48z  M69.16,46.52q1.28,0,1.84-0.4t0.56-1.32l0-23.6q0-0.92-0.56-1.32t-1.84-0.4l0-1.48l7.04,0l8.44,18.96l0-15.76q0-0.92-0.56-1.32t-1.84-0.4l0-1.48l6.68,0l0,1.48q-1.28,0-1.84,0.4t-0.56,1.32l0,26.8l-1.96,0l-11.12-25.2l0,22q0,0.92,0.56,1.32t1.84,0.4l0,1.48l-6.68,0l0-1.48z M90.24,46.52q1.28,0,1.84-0.4t0.56-1.32l0-15.2q0-0.92-0.56-1.32t-1.84-0.4l0-1.48l11.84,0q1.04,0,1.48-0.18t0.48-0.58l1.32,0l1.64,6.48l-1.32,0.36q-0.72-1.92-1.38-2.9t-1.68-1.3t-2.78-0.32l-2.84,0l0,8.6l2.88,0q1.56,0,1.56-2.08l1.28,0l0,6.08l-1.28,0q0-2.44-1.56-2.44l-2.88,0l0,8.32l4.16,0q1.8,0,2.78-0.4t1.44-1.54t0.7-3.34l1.32,0l0,7.68l-1.36,0q-0.16-0.48-0.76-0.66t-2-0.18l-13.04,0l0-1.48z M132.44,29.4q0.24-0.8-0.4-1.28t-2-0.48l0-1.24l6.56,0l0,1.24q-1.04,0-1.6,0.4t-0.88,1.36l-6,19.16l-1.04,0l-4.76-15.64l-4.56,15.64l-1.08,0l-6.24-19.24q-0.32-1.04-0.82-1.36t-1.66-0.32l0-1.24l9,0l0,1.24q-2.92,0-2.44,1.64l3.68,12.16l3.28-11.56q0.28-1-0.4-1.62t-1.88-0.62l0-1.24l8.36,0l0.04,1.24q-2.96,0-2.48,1.64l3.56,12.08z M144.72,26q1.2,0,1.86,0.14t1,0.1t0.54-0.56l1.36,0l1.64,6.44l-1.36,0.36q-1-2.76-2.02-3.8t-2.66-1.04q-1.24,0-2.14,0.86t-0.9,2.1q0,1.12,0.56,1.86t2,1.54l4.32,2.36q1.72,0.92,2.66,2.5t0.94,3.58q0,1.64-0.94,3t-2.52,2.16t-3.54,0.8q-1.48,0-2.4-0.28t-1.46-0.56t-0.94-0.28q-0.92,0-1.2,0.72l-1.4,0l0-7.92l1.36,0q0.56,3.16,1.98,4.88t3.46,1.72q0.92,0,1.74-0.52t1.34-1.32t0.52-1.68q0-2.12-2.8-3.68l-3.52-1.96q-3.96-2.16-3.96-5.6q0-1.56,0.92-2.92t2.4-2.18t3.16-0.82z  M162.68,46.52q1.28,0,1.84-0.4t0.56-1.32l0-23.6q0-0.92-0.56-1.32t-1.84-0.4l0-1.48l7.88,0l5.88,22.04l5.6-22.04l7.68,0l0,1.48q-1.36,0-1.88,0.38t-0.52,1.34l0,23.6q0,0.92,0.56,1.32t1.84,0.4l0,1.48l-9.2,0l0-1.48q1.28,0,1.84-0.4t0.56-1.32l0-22.96l-6.72,26.16l-1.84,0l-7.4-25.64l0,22.44q0,0.92,0.56,1.32t1.84,0.4l0,1.48l-6.68,0l0-1.48z M194.88,44.76q-0.28,0.8,0.38,1.28t2.02,0.48l0,1.48l-6.68,0l0-1.48q1.08,0,1.64-0.4t0.84-1.36l6-18.52l1.92,0l6.24,18.6q0.36,1.04,0.8,1.36t1.68,0.32l0,1.48l-9.2,0l0-1.48q2.96,0,2.44-1.64l-0.84-2.68l-6.4,0z M196.24,40.68l5.4,0l-2.64-8.4z M212.76,44.8l0-15.2q0-0.92-0.56-1.32t-1.84-0.4l0-1.48l6.72,0l8.6,13.84l0-10.64q0-0.96-0.52-1.34t-1.88-0.38l0-1.48l6.56,0l0,1.48q-1.36,0-1.88,0.38t-0.52,1.34l0,18.4l-1.8,0l-11.12-18l0,14.8q0,0.96,0.52,1.34t1.88,0.38l0,1.48l-6.56,0l0-1.48q1.36,0,1.88-0.38t0.52-1.34z M240.16,26q1.44,0,2.08,0.12t0.92-0.52l1.36,0l1.64,6.44l-1.36,0.36q-0.72-1.88-1.36-2.92t-1.42-1.46t-1.9-0.42q-1.48,0-2.48,1.22t-1,3.02l0,10.92q0,1.84,1.06,3t2.78,1.16q1.84,0,2.98-1.76t1.14-4.52l0-0.64l1.64,0l0,0.04q0,4.36-1.62,6.46t-4.98,2.1q-3.44,0-5.42-2.28t-1.98-6.28l0-5.48q0-8.56,7.92-8.56z  M260.52,46.52q1.28,0,1.84-0.4t0.56-1.32l0-25.32l-0.52,0q-1.6,0-2.62,0.48t-1.72,1.74t-1.38,3.62l-1.48-0.36l1.76-8.44l1.36,0q0.16,0.88,0.54,1.18t1.3,0.3l10.24,0q0.92,0,1.32-0.32t0.52-1.16l1.36,0l1.76,8.44l-1.48,0.36q-0.68-2.36-1.38-3.62t-1.7-1.74t-2.64-0.48l-0.76,0l0,25.32q0,0.92,0.56,1.32t1.84,0.4l0,1.48l-9.28,0l0-1.48z M276.64,46.52q1.28,0,1.84-0.4t0.56-1.32l0-15.2q0-0.92-0.56-1.32t-1.84-0.4l0-1.48l9.2,0l0,1.48q-1.28,0-1.84,0.4t-0.56,1.32l0,15.2q0,0.92,0.56,1.32t1.84,0.4l0,1.48l-9.2,0l0-1.48z M290.16,44.8l0-15.2q0-0.92-0.56-1.32t-1.84-0.4l0-1.48l7.08,0l4.84,14.64l4.12-14.64l7.28,0l0,1.36q-1.36,0-1.88,0.38t-0.52,1.34l0,15.32q0,0.96,0.52,1.34t1.88,0.38l0,1.48l-8.88,0l0-1.48q1.36,0,1.88-0.38t0.52-1.34l0-15.08l-5.04,18.28l-1.64,0l-6-18.32l0,15.12q0,0.96,0.52,1.34t1.88,0.38l0,1.48l-6.56,0l0-1.48q1.36,0,1.88-0.38t0.52-1.34z M313,46.52q1.28,0,1.84-0.4t0.56-1.32l0-15.2q0-0.92-0.56-1.32t-1.84-0.4l0-1.48l11.84,0q1.04,0,1.48-0.18t0.48-0.58l1.32,0l1.64,6.48l-1.32,0.36q-0.72-1.92-1.38-2.9t-1.68-1.3t-2.78-0.32l-2.84,0l0,8.6l2.88,0q1.56,0,1.56-2.08l1.28,0l0,6.08l-1.28,0q0-2.44-1.56-2.44l-2.88,0l0,8.32l4.16,0q1.8,0,2.78-0.4t1.44-1.54t0.7-3.34l1.32,0l0,7.68l-1.36,0q-0.16-0.48-0.76-0.66t-2-0.18l-13.04,0l0-1.48z M339,26q1.2,0,1.86,0.14t1,0.1t0.54-0.56l1.36,0l1.64,6.44l-1.36,0.36q-1-2.76-2.02-3.8t-2.66-1.04q-1.24,0-2.14,0.86t-0.9,2.1q0,1.12,0.56,1.86t2,1.54l4.32,2.36q1.72,0.92,2.66,2.5t0.94,3.58q0,1.64-0.94,3t-2.52,2.16t-3.54,0.8q-1.48,0-2.4-0.28t-1.46-0.56t-0.94-0.28q-0.92,0-1.2,0.72l-1.4,0l0-7.92l1.36,0q0.56,3.16,1.98,4.88t3.46,1.72q0.92,0,1.74-0.52t1.34-1.32t0.52-1.68q0-2.12-2.8-3.68l-3.52-1.96q-3.96-2.16-3.96-5.6q0-1.56,0.92-2.92t2.4-2.18t3.16-0.82z"></path></g></svg>